<svg xmlns="http://www.w3.org/2000/svg" viewBox="0 0 104.52 7.62"><defs><style>.cls-1{fill:#231f20;}.cls-2{fill:#3a62a3;}.cls-3{fill:#63b2a3;}</style></defs><title>legend_MedianPrices</title><g id="Layer_2" data-name="Layer 2"><g id="Layer_1-2" data-name="Layer 1"><path class="cls-1" d="M95.24,2.49h-.49a1.34,1.34,0,0,0-1.45-.91c-.51,0-1.23.2-1.23.87,0,.51.41.77,1,.89l.6.14c.74.16,1.71.46,1.71,1.43s-.89,1.48-1.87,1.48a1.88,1.88,0,0,1-2.08-1.62h.49a1.42,1.42,0,0,0,1.56,1.17c.56,0,1.41-.2,1.41-1s-.6-.91-1.31-1.06l-.64-.14c-.67-.16-1.33-.48-1.33-1.31s.94-1.34,1.76-1.34A1.75,1.75,0,0,1,95.24,2.49Z"/><path class="cls-1" d="M99.3,4.43c0,1.37-.8,2-1.71,2s-1.7-.59-1.7-2,.8-2,1.7-2S99.3,3.06,99.3,4.43Zm-.46,0c0-1.08-.52-1.56-1.25-1.56s-1.24.48-1.24,1.56S96.87,6,97.59,6,98.84,5.51,98.84,4.43Z"/><path class="cls-1" d="M100.06,6.3V1.22h.43V6.3Z"/><path class="cls-1" d="M104.09,3.18v-2h.43V6.3h-.43V5.68a1.43,1.43,0,0,1-1.27.71c-.87,0-1.58-.71-1.58-2s.71-2,1.58-2A1.43,1.43,0,0,1,104.09,3.18Zm-2.38,1.25c0,1,.5,1.57,1.2,1.57s1.21-.46,1.21-1.57-.65-1.57-1.21-1.57S101.71,3.43,101.71,4.43Z"/><path class="cls-1" d="M21,1.22,22.92,6.3h-.51L21.93,5H19.51L19,6.3h-.5l1.92-5.08Zm.77,3.37L20.71,1.8l-1,2.79Z"/><path class="cls-1" d="M25.94,3.74a1.12,1.12,0,0,0-1.14-.87c-.65,0-1.22.52-1.22,1.55S24.15,6,24.81,6A1.12,1.12,0,0,0,26,5.11h.47a1.58,1.58,0,0,1-1.62,1.28c-1.07,0-1.7-.8-1.7-2a1.72,1.72,0,0,1,1.73-2,1.52,1.52,0,0,1,1.55,1.27Z"/><path class="cls-1" d="M27.74,1.68v.85h.74v.38h-.74V5.32c0,.49,0,.59.52.59h.22V6.3h-.35c-.68,0-.83-.16-.83-.9V2.91h-.62V2.53h.62V1.68Z"/><path class="cls-1" d="M29.67,1.91h-.44V1.22h.44Zm0,4.39h-.44V2.53h.44Z"/><path class="cls-1" d="M33,2.53h.47L32.05,6.3h-.42L30.19,2.53h.49L31.85,5.7Z"/><path class="cls-1" d="M35.45,2.47a1.77,1.77,0,0,1,1.68,2.07h-3A1.34,1.34,0,0,0,35.49,6a1.11,1.11,0,0,0,1.15-.82h.45a1.55,1.55,0,0,1-1.63,1.22,1.75,1.75,0,0,1-1.78-2A1.77,1.77,0,0,1,35.45,2.47Zm1.2,1.67a1.23,1.23,0,0,0-1.21-1.28,1.27,1.27,0,0,0-1.29,1.28Z"/><path class="cls-1" d="M42.78,5.86V6.3H39.62V1.22h.47V5.86Z"/><path class="cls-1" d="M43.73,1.91H43.3V1.22h.43Zm0,4.39H43.3V2.53h.43Z"/><path class="cls-1" d="M46,2.85c-.41,0-1,.16-1,.61s.3.57.71.65l.53.09c.62.12,1.31.33,1.31,1s-.68,1.15-1.5,1.15a1.43,1.43,0,0,1-1.56-1.25H45A1,1,0,0,0,46.12,6c.46,0,1-.18,1-.69s-.43-.59-.94-.69l-.58-.11c-.55-.11-1-.42-1-1s.6-1,1.45-1a1.39,1.39,0,0,1,1.45,1.1H47A1,1,0,0,0,46,2.85Z"/><path class="cls-1" d="M49.05,1.68v.85h.74v.38h-.74V5.32c0,.49,0,.59.52.59h.22V6.3h-.36c-.67,0-.82-.16-.82-.9V2.91H48V2.53h.63V1.68Z"/><path class="cls-1" d="M51,1.91h-.43V1.22H51ZM51,6.3h-.43V2.53H51Z"/><path class="cls-1" d="M53.71,2.47C54.6,2.47,55,3,55,3.92V6.3h-.44V4c0-.7-.18-1.18-.94-1.18A1.21,1.21,0,0,0,52.46,4.2V6.3H52V2.53h.44v.64A1.29,1.29,0,0,1,53.71,2.47Z"/><path class="cls-1" d="M57.16,6.24a1.68,1.68,0,0,1-1.57-1.89,1.67,1.67,0,0,1,1.57-1.88,1.43,1.43,0,0,1,1.28.71V2.53h.44V6.17a1.41,1.41,0,0,1-1.6,1.45,1.33,1.33,0,0,1-1.46-1.11h.46c0,.4.38.73,1,.73s1.15-.32,1.15-1V5.53A1.43,1.43,0,0,1,57.16,6.24Zm-1.1-1.89c0,.93.49,1.5,1.19,1.5s1.22-.45,1.22-1.5-.64-1.49-1.22-1.49S56.06,3.43,56.06,4.35Z"/><path class="cls-1" d="M61.14,2.85c-.41,0-1,.16-1,.61s.3.57.71.65l.53.09c.62.12,1.31.33,1.31,1s-.68,1.15-1.5,1.15a1.43,1.43,0,0,1-1.56-1.25h.45A1,1,0,0,0,61.26,6c.46,0,1-.18,1-.69s-.42-.59-.94-.69l-.58-.11c-.55-.11-1-.42-1-1s.6-1,1.45-1a1.39,1.39,0,0,1,1.45,1.1h-.46A1,1,0,0,0,61.14,2.85Z"/><path class="cls-2" d="M86.85,7H84.34V6h2.51ZM81.33,7H78.82V6h2.51ZM75.81,7H73.3V6h2.51Z"/><path class="cls-3" d="M86.85,4h-2.5V3h2.5Zm-5.5,0h-2.5V3h2.5Zm-5.5,0h-2.5V3h2.5Z"/><path d="M86.85,1h-2.5V0h2.5Zm-5.5,0h-2.5V0h2.5Zm-5.5,0h-2.5V0h2.5Z"/><rect y="0.01" width="13.41" height="1"/><rect class="cls-3" y="2.99" width="13.41" height="1"/><rect class="cls-2" y="5.98" width="13.41" height="1"/></g></g></svg>