<svg xmlns="http://www.w3.org/2000/svg" viewBox="0 0 31.23 5.26"><defs><style>.cls-1{fill:#231f20;}</style></defs><title>AvgDOMOverTime</title><g id="Layer_2" data-name="Layer 2"><g id="Layer_1-2" data-name="Layer 1"><path class="cls-1" d="M21.94,1.36h-.49A1.33,1.33,0,0,0,20,.45c-.51,0-1.23.2-1.23.87,0,.51.42.77,1,.89l.6.14c.74.16,1.71.46,1.71,1.43s-.89,1.48-1.87,1.48a1.88,1.88,0,0,1-2.08-1.62h.49a1.42,1.42,0,0,0,1.57,1.17c.55,0,1.4-.2,1.4-1s-.6-.91-1.31-1.06l-.64-.14c-.67-.16-1.33-.48-1.33-1.31S19.23,0,20.05,0A1.75,1.75,0,0,1,21.94,1.36Z"/><path class="cls-1" d="M26,3.3c0,1.37-.8,2-1.7,2s-1.71-.59-1.71-2,.8-2,1.71-2S26,1.93,26,3.3Zm-.46,0c0-1.08-.52-1.56-1.24-1.56s-1.24.48-1.24,1.56.51,1.56,1.24,1.56S25.54,4.38,25.54,3.3Z"/><path class="cls-1" d="M26.76,5.17V.09h.43V5.17Z"/><path class="cls-1" d="M30.79,2.05v-2h.44V5.17h-.44V4.55a1.42,1.42,0,0,1-1.27.71c-.87,0-1.58-.71-1.58-2s.71-2,1.58-2A1.42,1.42,0,0,1,30.79,2.05ZM28.41,3.3c0,1,.5,1.57,1.2,1.57s1.21-.46,1.21-1.57-.64-1.57-1.21-1.57S28.41,2.3,28.41,3.3Z"/><path d="M13.5,2.87H11v-1h2.5ZM8,2.87H5.5v-1H8Zm-5.5,0H0v-1H2.5Z"/></g></g></svg>