<svg xmlns="http://www.w3.org/2000/svg" viewBox="0 0 149.95 7.61"><defs><style>.cls-1{fill:#231f20;}.cls-2{fill:#63b2a3;}.cls-3{fill:#3a62a3;}</style></defs><title>legend_AvgDOMOverTime</title><g id="Layer_2" data-name="Layer 2"><g id="Layer_1-2" data-name="Layer 1"><path d="M86.8,5.35H84.3v-1h2.5Zm-5.5,0H78.8v-1h2.5Zm-5.5,0H73.3v-1h2.5Z"/><path class="cls-1" d="M21,1.22l1.93,5.07h-.51L21.93,5H19.51L19,6.29h-.5l1.92-5.07Zm.77,3.36L20.71,1.8l-1,2.78Z"/><path class="cls-1" d="M25.94,3.74a1.12,1.12,0,0,0-1.14-.88c-.65,0-1.22.52-1.22,1.56S24.15,6,24.81,6A1.13,1.13,0,0,0,26,5.1h.47a1.58,1.58,0,0,1-1.62,1.28c-1.07,0-1.7-.8-1.7-2a1.72,1.72,0,0,1,1.73-2,1.53,1.53,0,0,1,1.55,1.28Z"/><path class="cls-1" d="M27.74,1.68v.84h.74V2.9h-.74V5.31c0,.49,0,.59.52.59h.22v.39h-.35c-.68,0-.83-.15-.83-.89V2.9h-.62V2.52h.62V1.68Z"/><path class="cls-1" d="M29.67,1.91h-.44V1.22h.44Zm0,4.38h-.44V2.52h.44Z"/><path class="cls-1" d="M33,2.52h.47l-1.4,3.77h-.42L30.19,2.52h.49l1.17,3.17Z"/><path class="cls-1" d="M35.45,2.46a1.78,1.78,0,0,1,1.68,2.08h-3A1.34,1.34,0,0,0,35.49,6a1.12,1.12,0,0,0,1.15-.82h.45a1.55,1.55,0,0,1-1.63,1.21,1.76,1.76,0,0,1-1.78-2A1.77,1.77,0,0,1,35.45,2.46Zm1.2,1.68a1.24,1.24,0,0,0-1.21-1.29,1.27,1.27,0,0,0-1.29,1.29Z"/><path class="cls-1" d="M42.78,5.86v.43H39.62V1.22h.47V5.86Z"/><path class="cls-1" d="M43.74,1.91H43.3V1.22h.44Zm0,4.38H43.3V2.52h.44Z"/><path class="cls-1" d="M46,2.84c-.41,0-1,.16-1,.62s.3.56.71.64l.53.1c.62.11,1.31.32,1.31,1s-.68,1.14-1.5,1.14a1.42,1.42,0,0,1-1.56-1.24H45A1,1,0,0,0,46.12,6c.46,0,1-.19,1-.69s-.42-.6-.94-.7l-.58-.11c-.55-.1-1-.42-1-1s.6-1,1.45-1A1.38,1.38,0,0,1,47.5,3.55H47A1,1,0,0,0,46,2.84Z"/><path class="cls-1" d="M49.05,1.68v.84h.74V2.9h-.74V5.31c0,.49,0,.59.52.59h.22v.39h-.36c-.67,0-.82-.15-.82-.89V2.9H48V2.52h.63V1.68Z"/><path class="cls-1" d="M51,1.91h-.43V1.22H51Zm0,4.38h-.43V2.52H51Z"/><path class="cls-1" d="M53.71,2.46C54.6,2.46,55,3,55,3.92V6.29h-.44V4c0-.71-.18-1.19-.94-1.19A1.21,1.21,0,0,0,52.46,4.2V6.29H52V2.52h.44v.64A1.31,1.31,0,0,1,53.71,2.46Z"/><path class="cls-1" d="M57.16,6.23a1.67,1.67,0,0,1-1.57-1.88,1.68,1.68,0,0,1,1.57-1.89,1.41,1.41,0,0,1,1.28.72V2.52h.44V6.16a1.4,1.4,0,0,1-1.6,1.45A1.33,1.33,0,0,1,55.82,6.5h.46c0,.4.38.73,1,.73s1.15-.32,1.15-1V5.52A1.41,1.41,0,0,1,57.16,6.23Zm-1.1-1.88c0,.93.49,1.49,1.19,1.49s1.22-.45,1.22-1.49-.64-1.5-1.22-1.5S56.06,3.42,56.06,4.35Z"/><path class="cls-1" d="M61.15,2.84c-.42,0-1,.16-1,.62s.29.56.7.64l.53.1c.62.11,1.31.32,1.31,1s-.68,1.14-1.5,1.14a1.42,1.42,0,0,1-1.56-1.24h.45A1,1,0,0,0,61.26,6c.46,0,1-.19,1-.69s-.42-.6-.94-.7l-.58-.11c-.55-.1-1-.42-1-1s.6-1,1.45-1a1.37,1.37,0,0,1,1.45,1.09h-.46A1,1,0,0,0,61.15,2.84Z"/><path class="cls-1" d="M95.38,2.48h-.49a1.34,1.34,0,0,0-1.45-.91c-.51,0-1.23.21-1.23.87s.41.77,1,.9l.6.13c.74.17,1.71.46,1.71,1.43s-.89,1.48-1.87,1.48a1.87,1.87,0,0,1-2.08-1.61H92A1.42,1.42,0,0,0,93.6,5.94c.56,0,1.41-.21,1.41-1s-.6-.91-1.31-1.07l-.64-.14c-.67-.15-1.33-.47-1.33-1.31s.94-1.34,1.76-1.34A1.75,1.75,0,0,1,95.38,2.48Z"/><path class="cls-1" d="M99.44,4.42c0,1.38-.8,2-1.71,2S96,5.8,96,4.42s.8-2,1.7-2S99.44,3.05,99.44,4.42Zm-.46,0c0-1.08-.52-1.56-1.25-1.56s-1.24.48-1.24,1.56S97,6,97.73,6,99,5.5,99,4.42Z"/><path class="cls-1" d="M100.2,6.29V1.22h.43V6.29Z"/><path class="cls-1" d="M104.23,3.18v-2h.43V6.29h-.43V5.68a1.42,1.42,0,0,1-1.27.7c-.87,0-1.58-.7-1.58-2s.71-2,1.58-2A1.42,1.42,0,0,1,104.23,3.18Zm-2.38,1.24c0,1,.5,1.57,1.2,1.57s1.21-.45,1.21-1.57-.65-1.57-1.21-1.57S101.85,3.42,101.85,4.42Z"/><path class="cls-1" d="M107.81,1.91h-.44V1.22h.44Zm0,4.38h-.44V2.52h.44Z"/><path class="cls-1" d="M110.54,2.46c.89,0,1.27.53,1.27,1.46V6.29h-.43V4c0-.71-.18-1.19-.95-1.19a1.21,1.21,0,0,0-1.14,1.35V6.29h-.43V2.52h.43v.64A1.31,1.31,0,0,1,110.54,2.46Z"/><path class="cls-1" d="M115.86,3.91l1.58-2.69H118l-1.9,3.17v1.9h-.47V4.37l-1.8-3.15h.53Z"/><path class="cls-1" d="M121,4.42c0,1.38-.81,2-1.71,2s-1.7-.58-1.7-2,.8-2,1.7-2S121,3.05,121,4.42Zm-.46,0c0-1.08-.53-1.56-1.25-1.56S118,3.34,118,4.42,118.56,6,119.28,6,120.53,5.5,120.53,4.42Z"/><path class="cls-1" d="M122.86,6.38c-.86,0-1.23-.53-1.23-1.45V2.52h.44V4.81c0,.71.16,1.18.9,1.18a1.21,1.21,0,0,0,1.1-1.34V2.52h.43V6.29h-.43V5.68A1.28,1.28,0,0,1,122.86,6.38Z"/><path class="cls-1" d="M127,3c-.78,0-1,.56-1,1.36v2h-.43V2.52H126v.69a1.21,1.21,0,0,1,1.12-.71h.12V3Z"/><path class="cls-1" d="M129.94,1.66V6.29h-.47V1.22h.76l1.68,4.54,1.67-4.54h.75V6.29h-.47V1.66l-1.72,4.63h-.48Z"/><path class="cls-1" d="M136.41,6.38a1.11,1.11,0,0,1-1.25-1c0-.85.84-1.17,2.66-1.35V3.87a.91.91,0,0,0-1-1,.94.94,0,0,0-1.06.84h-.46a1.44,1.44,0,0,1,1.54-1.23c.88,0,1.46.37,1.46,1.49,0,.51,0,.86,0,1.16s0,.8,0,1.2h-.45l0-.57A1.54,1.54,0,0,1,136.41,6.38Zm1.43-1.81V4.39c-1.54.17-2.19.37-2.19,1,0,.4.36.65.86.65A1.25,1.25,0,0,0,137.84,4.57Z"/><path class="cls-1" d="M140.62,3c-.78,0-1,.56-1,1.36v2h-.43V2.52h.41v.69a1.21,1.21,0,0,1,1.12-.71h.12V3Z"/><path class="cls-1" d="M141.78,4.41l1.72-1.89H144L142.64,4l1.52,2.25h-.51l-1.29-1.94-.58.63V6.29h-.44V1.22h.44Z"/><path class="cls-1" d="M146.16,2.46a1.78,1.78,0,0,1,1.68,2.08h-3A1.34,1.34,0,0,0,146.2,6a1.12,1.12,0,0,0,1.15-.82h.46a1.57,1.57,0,0,1-1.64,1.21,1.76,1.76,0,0,1-1.78-2A1.77,1.77,0,0,1,146.16,2.46Zm1.2,1.68a1.24,1.24,0,0,0-1.21-1.29,1.27,1.27,0,0,0-1.29,1.29Z"/><path class="cls-1" d="M149.21,1.68v.84H150V2.9h-.74V5.31c0,.49,0,.59.52.59H150v.39h-.35c-.68,0-.83-.15-.83-.89V2.9h-.62V2.52h.62V1.68Z"/><rect width="13.41" height="1"/><rect class="cls-2" y="2.99" width="13.41" height="1"/><rect class="cls-3" y="5.97" width="13.41" height="1"/></g></g></svg>