<svg xmlns="http://www.w3.org/2000/svg" viewBox="0 0 10.09 7.06"><defs><style>.cls-1{fill:#231f20;}</style></defs><title>icon_transit_black</title><g id="Layer_2" data-name="Layer 2"><g id="Layer_1-2" data-name="Layer 1"><path class="cls-1" d="M10.09,4V5.3a.25.25,0,0,1-.25.25H9.08a1.52,1.52,0,0,1-3,0H4a1.52,1.52,0,0,1-3,0H.25A.25.25,0,0,1,0,5.3V3.53a1,1,0,0,1,.76-1L1.51.63A1,1,0,0,1,2.45,0H5.82a1.14,1.14,0,0,1,.79.38L8.32,2.52h.25A1.52,1.52,0,0,1,10.09,4ZM3.28,5.55a.76.76,0,0,0-.76-.76.76.76,0,1,0,.76.76ZM3.66,1H2.45L1.84,2.52H3.66ZM7,2.52,5.82,1H4.41V2.52Zm1.29,3a.76.76,0,1,0-.75.75A.76.76,0,0,0,8.32,5.55Z"/></g></g></svg>