<svg xmlns="http://www.w3.org/2000/svg" viewBox="0 0 11.53 8.35"><defs><style>.cls-1{fill:#fff;}</style></defs><title>icon_crime_white</title><g id="Layer_2" data-name="Layer 2"><g id="Layer_1-2" data-name="Layer 1"><path class="cls-1" d="M2.41,8.33a.81.81,0,0,0,.42-.45L4,5.58a.63.63,0,0,1,.64-.39H6.24a1,1,0,0,0,1-.63.77.77,0,0,0,.08-.37V3.72a.59.59,0,0,1,.57-.64,1.08,1.08,0,0,1,.18,0H10.8c.17,0,.18,0,.18-.17V2.69c0-.08,0-.13.12-.13a3,3,0,0,1,.42,0h0V.52h0a.55.55,0,0,1-.18,0h-8A.35.35,0,0,1,3,.33C2.83-.06,2.93,0,2.49,0h-1a.24.24,0,0,0-.25.15c0,.08-.08.17-.12.25A.21.21,0,0,1,.9.54H.74C.58.54.57.55.57.71V3c0,.13,0,.14.14.14a1.26,1.26,0,0,1,.51.11A.68.68,0,0,1,1.64,4a2.26,2.26,0,0,1-.36.93c-.23.39-.5.76-.72,1.16a6.12,6.12,0,0,0-.47,1A2,2,0,0,0,0,7.8a.54.54,0,0,0,.35.49l.08,0v0h2ZM4.2,3.64a.52.52,0,0,1,.4-.5c.07,0,.11,0,.13.08a1,1,0,0,0,.87.94h.17a.72.72,0,0,1-.06-1,.17.17,0,0,1,.15-.07h.41a.52.52,0,0,1,.55.54v.49a.52.52,0,0,1-.56.54H4.75a.52.52,0,0,1-.55-.56C4.2,4,4.19,3.81,4.2,3.64Z"/></g></g></svg>