<svg xmlns="http://www.w3.org/2000/svg" viewBox="0 0 10.29 11.88"><defs><style>.cls-1{fill:#fff;}</style></defs><title>icon_fam_2</title><g id="Layer_2" data-name="Layer 2"><g id="Layer_1-2" data-name="Layer 1"><path class="cls-1" d="M9.64,3.52l0-.1A.67.67,0,0,0,9,3H6.1a.67.67,0,0,0-.6.43l0,.1,0,.14L5.09,5.28,4.45,3.41h0l0-.11a.67.67,0,0,0-.6-.43H1.68a.69.69,0,0,0-.61.43l0,.11H1l-1,3a.36.36,0,0,0,.23.46h0a.38.38,0,0,0,.47-.23l.81-2.28,0,0,0,0-.48,4a.23.23,0,0,0,.24.27h.31v2.83a.46.46,0,0,0,.45.46h0a.46.46,0,0,0,.45-.46V8.59h.38v2.83a.47.47,0,0,0,.46.46h0a.47.47,0,0,0,.46-.46V8.59h.31a.24.24,0,0,0,.24-.27L3.94,4.37,4,4.3l0,.07.81,2.28A.5.5,0,0,0,5.05,7h.14a.38.38,0,0,0,.34-.24L6.25,4.5h0v6.8a.6.6,0,0,0,.6.59H7a.58.58,0,0,0,.46-.23V7.23a.15.15,0,0,1,.14-.14.15.15,0,0,1,.15.14v4.46a.57.57,0,0,0,.43.19h.11a.6.6,0,0,0,.6-.59V4.48h0l.72,2.28A.36.36,0,0,0,10,7h0a.35.35,0,0,0,.23-.46Z"/><path class="cls-1" d="M7.55,0A1.11,1.11,0,0,0,6.46,1.18,1.26,1.26,0,0,0,7.55,2.51,1.26,1.26,0,0,0,8.64,1.18,1.11,1.11,0,0,0,7.55,0Z"/><path class="cls-1" d="M2.74,0A1.06,1.06,0,0,0,1.69,1.13,1.22,1.22,0,0,0,2.74,2.42,1.22,1.22,0,0,0,3.8,1.13,1.07,1.07,0,0,0,2.74,0Z"/></g></g></svg>