<svg xmlns="http://www.w3.org/2000/svg" viewBox="0 0 16.22 11.88"><defs><style>.cls-1{fill:#fff;}</style></defs><title>icon_fam_2-2</title><g id="Layer_2" data-name="Layer 2"><g id="Layer_1-2" data-name="Layer 1"><path class="cls-1" d="M7.07,3.47a.9.9,0,0,0-.89,1,.94.94,0,0,0,.89,1,.94.94,0,0,0,.9-1A.91.91,0,0,0,7.07,3.47Z"/><path class="cls-1" d="M8.28,5.83H5.87a.34.34,0,0,0-.34.33V8.94a.15.15,0,0,0,.15.14h.21A.14.14,0,0,0,6,8.94V7.1A.15.15,0,0,1,6.18,7a.15.15,0,0,1,.14.15v4.54a.24.24,0,0,0,.24.24h.13a.24.24,0,0,0,.24-.21V9a.15.15,0,0,1,.14-.15A.15.15,0,0,1,7.22,9v2.65a.23.23,0,0,0,.23.21h.14a.24.24,0,0,0,.24-.24V7.1a.14.14,0,1,1,.28,0V8.94a.15.15,0,0,0,.15.14h.21a.14.14,0,0,0,.14-.14V6.16A.33.33,0,0,0,8.28,5.83Z"/><path class="cls-1" d="M2.74,0A1.06,1.06,0,0,0,1.69,1.13,1.22,1.22,0,0,0,2.74,2.42,1.22,1.22,0,0,0,3.8,1.13,1.07,1.07,0,0,0,2.74,0Z"/><path class="cls-1" d="M4.45,3.41h0l0-.11a.67.67,0,0,0-.6-.43H1.68a.69.69,0,0,0-.61.43l0,.11H1l-1,3a.36.36,0,0,0,.23.46h0a.38.38,0,0,0,.47-.23l.81-2.28,0,0,0,0-.48,4a.23.23,0,0,0,.24.27h.31v2.83a.46.46,0,0,0,.45.46h0a.46.46,0,0,0,.45-.46V8.59h.38v2.83a.47.47,0,0,0,.46.46h0a.47.47,0,0,0,.46-.46V8.59h.31a.24.24,0,0,0,.24-.27L3.94,4.37,4,4.3l0,.07.81,2.28a.38.38,0,0,0,.47.23h0a.37.37,0,0,0,.23-.46Z"/><path class="cls-1" d="M9,2.94a.35.35,0,0,0-.32.37V7A.37.37,0,0,0,9,7.39h0A.36.36,0,0,0,9.41,7V4.47a.14.14,0,0,1,.14-.14.15.15,0,0,1,.15.14v7a.49.49,0,0,0,.13.33.46.46,0,0,0,.32.13h.12a.41.41,0,0,0,.3-.12.4.4,0,0,0,.15-.29V7.33a.15.15,0,0,1,.15-.15.15.15,0,0,1,.14.15v4.14a.47.47,0,0,0,.46.41h.11a.47.47,0,0,0,.26-.08.46.46,0,0,0,.2-.38V4.47a.14.14,0,0,1,.14-.14"/><path class="cls-1" d="M10.87.08a1.11,1.11,0,0,0-1.1,1.18,1.26,1.26,0,0,0,1.1,1.33A1.26,1.26,0,0,0,12,1.26,1.11,1.11,0,0,0,10.87.08Z"/><path class="cls-1" d="M14.7,5.42a.65.65,0,0,0-.65.69.65.65,0,1,0,1.29,0A.65.65,0,0,0,14.7,5.42Z"/><path class="cls-1" d="M9.74,3.72,11,6.94l1,4.3V4.44l.72,2.27A.39.39,0,0,0,13,7L14,8V8l-.28,1.78a.14.14,0,0,0,.14.15H14v1.61a.26.26,0,0,0,.26.26h0a.26.26,0,0,0,.26-.26V10h.19v1.61a.26.26,0,0,0,.26.26h0a.26.26,0,0,0,.26-.26V10h.18a.13.13,0,0,0,.14-.15L15.34,8h0l.46,1.29a.22.22,0,0,0,.27.12h0a.21.21,0,0,0,.13-.26l-.58-1.7.12.36-.14-.41a.39.39,0,0,0-.34-.25h-1.4l-.45-.49a.45.45,0,0,0,0-.23l-.64-3,0-.1a.71.71,0,0,0-.61-.44H9Z"/></g></g></svg>