<svg xmlns="http://www.w3.org/2000/svg" viewBox="0 0 7.57 11.88"><defs><style>.cls-1{fill:#fff;}</style></defs><title>icon_fam_1-1</title><g id="Layer_2" data-name="Layer 2"><g id="Layer_1-2" data-name="Layer 1"><path class="cls-1" d="M1.55,3.41a.91.91,0,0,0-.9,1,.94.94,0,0,0,.9,1,.94.94,0,0,0,.9-1A.91.91,0,0,0,1.55,3.41Z"/><path class="cls-1" d="M2.77,5.79H.33A.33.33,0,0,0,0,6.12v2.8a.14.14,0,0,0,.14.14H.36A.14.14,0,0,0,.5,8.92V7.06a.15.15,0,0,1,.15-.14.14.14,0,0,1,.14.14v4.58a.24.24,0,0,0,.24.24h.14a.25.25,0,0,0,.24-.21V9a.15.15,0,0,1,.14-.15A.15.15,0,0,1,1.7,9v2.67a.23.23,0,0,0,.23.21h.14a.24.24,0,0,0,.24-.24V7.06a.14.14,0,0,1,.14-.14.15.15,0,0,1,.15.14V8.92a.14.14,0,0,0,.14.14H3a.14.14,0,0,0,.14-.14V6.12A.33.33,0,0,0,2.77,5.79Z"/><path class="cls-1" d="M7.21,2.9H3.53a.36.36,0,0,0-.36.36V7a.35.35,0,0,0,0,.14.37.37,0,0,0,.33.22h0A.36.36,0,0,0,3.9,7V4.42a.15.15,0,0,1,.15-.15.15.15,0,0,1,.14.15v7a.45.45,0,0,0,.14.33.44.44,0,0,0,.32.13h.12a.5.5,0,0,0,.31-.12.44.44,0,0,0,.14-.29V7.3a.15.15,0,0,1,.3,0v4.17a.41.41,0,0,0,.15.29.45.45,0,0,0,.3.12h.12a.5.5,0,0,0,.26-.08.46.46,0,0,0,.2-.38v-7a.15.15,0,0,1,.14-.15.15.15,0,0,1,.15.15V6.58h0V7A.34.34,0,0,0,7,7.29a.35.35,0,0,0,.2.07h.08A.36.36,0,0,0,7.57,7V3.26A.36.36,0,0,0,7.21,2.9Z"/><path class="cls-1" d="M5.37,0a1.12,1.12,0,0,0-1.1,1.18,1.27,1.27,0,0,0,1.1,1.35,1.27,1.27,0,0,0,1.1-1.35A1.12,1.12,0,0,0,5.37,0Z"/></g></g></svg>