<svg xmlns="http://www.w3.org/2000/svg" viewBox="0 0 4.4 11.88"><defs><style>.cls-1{fill:#fff;}</style></defs><title>icon_fam_1</title><g id="Layer_2" data-name="Layer 2"><g id="Layer_1-2" data-name="Layer 1"><path class="cls-1" d="M4,2.9H.36A.36.36,0,0,0,0,3.26V7a.35.35,0,0,0,0,.14.37.37,0,0,0,.33.22h0A.36.36,0,0,0,.73,7V4.42a.15.15,0,0,1,.15-.15A.15.15,0,0,1,1,4.42v7a.45.45,0,0,0,.14.33.44.44,0,0,0,.32.13H1.6a.5.5,0,0,0,.31-.12.44.44,0,0,0,.14-.29V7.3a.15.15,0,0,1,.3,0v4.17a.41.41,0,0,0,.15.29.45.45,0,0,0,.3.12h.12a.5.5,0,0,0,.26-.08.46.46,0,0,0,.2-.38v-7a.15.15,0,0,1,.14-.15.15.15,0,0,1,.15.15V6.58h0V7a.34.34,0,0,0,.16.29.35.35,0,0,0,.2.07h.08A.36.36,0,0,0,4.4,7V3.26A.36.36,0,0,0,4,2.9Z"/><path class="cls-1" d="M2.2,0A1.12,1.12,0,0,0,1.1,1.18,1.27,1.27,0,0,0,2.2,2.53,1.27,1.27,0,0,0,3.3,1.18,1.12,1.12,0,0,0,2.2,0Z"/></g></g></svg>