<svg xmlns="http://www.w3.org/2000/svg" viewBox="0 0 62.73 7.61"><defs><style>.cls-1{fill:#231f20;}.cls-2{fill:#63b2a3;}.cls-3{fill:#3a62a3;}</style></defs><title>legend_PopulationAgeVsIncome</title><g id="Layer_2" data-name="Layer 2"><g id="Layer_1-2" data-name="Layer 1"><path class="cls-1" d="M21,1.22l1.93,5.07h-.51L21.93,5H19.51L19,6.29h-.5l1.92-5.07Zm.77,3.36L20.71,1.8l-1,2.78Z"/><path class="cls-1" d="M25.94,3.74a1.12,1.12,0,0,0-1.14-.88c-.65,0-1.22.52-1.22,1.56S24.15,6,24.81,6A1.13,1.13,0,0,0,26,5.1h.47a1.58,1.58,0,0,1-1.62,1.28c-1.07,0-1.7-.79-1.7-2a1.72,1.72,0,0,1,1.73-2,1.53,1.53,0,0,1,1.55,1.28Z"/><path class="cls-1" d="M27.74,1.68v.85h.74V2.9h-.74V5.31c0,.49,0,.59.52.59h.22v.39h-.35c-.68,0-.83-.15-.83-.89V2.9h-.62V2.53h.62V1.68Z"/><path class="cls-1" d="M29.67,1.91h-.44V1.22h.44Zm0,4.38h-.44V2.53h.44Z"/><path class="cls-1" d="M33,2.53h.47l-1.4,3.76h-.42L30.19,2.53h.49l1.17,3.16Z"/><path class="cls-1" d="M35.45,2.46a1.78,1.78,0,0,1,1.68,2.08h-3A1.34,1.34,0,0,0,35.49,6a1.12,1.12,0,0,0,1.15-.82h.45a1.55,1.55,0,0,1-1.63,1.21,1.76,1.76,0,0,1-1.78-2A1.78,1.78,0,0,1,35.45,2.46Zm1.2,1.68a1.24,1.24,0,0,0-1.21-1.29,1.27,1.27,0,0,0-1.29,1.29Z"/><path class="cls-1" d="M42.78,5.86v.43H39.62V1.22h.47V5.86Z"/><path class="cls-1" d="M43.74,1.91H43.3V1.22h.44Zm0,4.38H43.3V2.53h.44Z"/><path class="cls-1" d="M46,2.84c-.41,0-1,.16-1,.62s.3.56.71.64l.53.1c.62.11,1.31.32,1.31,1s-.68,1.14-1.5,1.14a1.42,1.42,0,0,1-1.56-1.24H45A1,1,0,0,0,46.12,6c.46,0,1-.19,1-.69s-.42-.6-.94-.7l-.58-.11c-.55-.1-1-.42-1-1s.6-1,1.45-1a1.38,1.38,0,0,1,1.45,1.1H47A1,1,0,0,0,46,2.84Z"/><path class="cls-1" d="M49.05,1.68v.85h.74V2.9h-.74V5.31c0,.49,0,.59.52.59h.22v.39h-.36c-.67,0-.82-.15-.82-.89V2.9H48V2.53h.63V1.68Z"/><path class="cls-1" d="M51,1.91h-.43V1.22H51Zm0,4.38h-.43V2.53H51Z"/><path class="cls-1" d="M53.71,2.46C54.6,2.46,55,3,55,3.92V6.29h-.44V4c0-.71-.18-1.19-.94-1.19A1.21,1.21,0,0,0,52.46,4.2V6.29H52V2.53h.44v.63A1.31,1.31,0,0,1,53.71,2.46Z"/><path class="cls-1" d="M57.16,6.23a1.67,1.67,0,0,1-1.57-1.88,1.68,1.68,0,0,1,1.57-1.89,1.41,1.41,0,0,1,1.28.72V2.53h.44V6.16a1.4,1.4,0,0,1-1.6,1.45A1.33,1.33,0,0,1,55.82,6.5h.46c0,.4.38.73,1,.73s1.15-.32,1.15-1V5.52A1.41,1.41,0,0,1,57.16,6.23Zm-1.1-1.88c0,.93.49,1.5,1.19,1.5s1.22-.46,1.22-1.5-.64-1.5-1.22-1.5S56.06,3.42,56.06,4.35Z"/><path class="cls-1" d="M61.15,2.84c-.42,0-1,.16-1,.62s.29.56.7.64l.53.1c.62.11,1.31.32,1.31,1s-.68,1.14-1.5,1.14a1.42,1.42,0,0,1-1.56-1.24h.45A1,1,0,0,0,61.26,6c.46,0,1-.19,1-.69s-.42-.6-.94-.7l-.58-.11c-.55-.1-1-.42-1-1s.6-1,1.45-1a1.37,1.37,0,0,1,1.45,1.1h-.46A1,1,0,0,0,61.15,2.84Z"/><rect width="13.41" height="1"/><rect class="cls-2" y="2.99" width="13.41" height="1"/><rect class="cls-3" y="5.97" width="13.41" height="1"/></g></g></svg>