<svg xmlns="http://www.w3.org/2000/svg" viewBox="0 0 10.09 8.07"><defs><style>.cls-1{fill:#231f20;}</style></defs><title>icon_schools_black</title><g id="Layer_2" data-name="Layer 2"><g id="Layer_1-2" data-name="Layer 1"><path class="cls-1" d="M.5,3h1v5H.25A.25.25,0,0,1,0,7.82V3.53A.5.5,0,0,1,.5,3Zm7.57-.84V8.07h-2V5.8a.25.25,0,0,0-.25-.25H4.29A.25.25,0,0,0,4,5.8V8.07H2V2.19a.57.57,0,0,1,.22-.42L4.76.08A.69.69,0,0,1,5,0a.65.65,0,0,1,.28.08L7.85,1.77A.5.5,0,0,1,8.07,2.19ZM6.3,2.77A1.26,1.26,0,1,0,5,4,1.26,1.26,0,0,0,6.3,2.77Zm-.5.13v.25a.13.13,0,0,1-.13.13H4.92a.13.13,0,0,1-.13-.13v-1A.12.12,0,0,1,4.92,2h.25a.12.12,0,0,1,.13.12v.63h.37A.13.13,0,0,1,5.8,2.9Zm4.29.63V7.82a.25.25,0,0,1-.25.25H8.57V3h1A.5.5,0,0,1,10.09,3.53Z"/></g></g></svg>